<svg width="16" height="17" viewBox="0 0 16 17" fill="none" xmlns="http://www.w3.org/2000/svg">
<path d="M2 2.5L2.04396 3.24337C2.21874 6.217 3.00084 7.9312 4.02327 8.75339C4.00605 8.78299 3.98675 8.80938 3.97027 8.84001C3.52559 9.66615 3.30724 10.8259 3.36652 12.4948L3.38849 13.1115L4.00517 13.1335C5.67407 13.1928 6.83385 12.9744 7.65999 12.5297C7.69062 12.5132 7.71701 12.4939 7.74661 12.4767C8.5688 13.4992 10.283 14.2813 13.2566 14.456L14 14.5L13.956 13.7566C13.7813 10.783 12.9992 9.0688 11.9767 8.24661C11.9939 8.21701 12.0132 8.19062 12.0297 8.15999C12.4744 7.33385 12.6928 6.17407 12.6335 4.50517L12.6115 3.88849L11.9948 3.86652C10.3259 3.80724 9.16615 4.02559 8.34001 4.47027C8.30938 4.48675 8.28299 4.50605 8.25339 4.52327C7.4312 3.50084 5.717 2.71874 2.74337 2.54396L2 2.5ZM3.47382 3.97382C5.77363 4.24224 6.87947 4.92091 7.29153 5.4541C7.11856 5.73073 6.99284 6.02029 6.93859 6.30608C6.84899 6.77811 6.96165 7.1557 7.04202 7.54202C6.6557 7.46165 6.27811 7.34899 5.80608 7.43859C5.52029 7.49284 5.23073 7.61856 4.9541 7.79153C4.42091 7.37947 3.74224 6.27363 3.47382 3.97382ZM11.2747 5.22527C11.2435 6.3071 11.0921 7.10715 10.8636 7.53167C10.5849 8.04948 10.2928 8.19518 9.94699 8.26083C9.36531 8.37125 8.72829 8.09646 8.50549 7.99451C8.40354 7.77171 8.12875 7.13469 8.23917 6.55301C8.30482 6.20718 8.45052 5.9151 8.96833 5.63639C9.39285 5.40789 10.1929 5.25648 11.2747 5.22527ZM6.49257 8.71978C6.92757 8.75526 7.32741 8.92903 7.49451 9.00549C7.59646 9.22829 7.87125 9.86531 7.76083 10.447C7.69518 10.7928 7.54948 11.0849 7.03167 11.3636C6.60715 11.5921 5.8071 11.7435 4.72527 11.7747C4.75648 10.6929 4.90789 9.89285 5.13639 9.46833C5.4151 8.95052 5.70718 8.80482 6.05301 8.73917C6.19843 8.71157 6.34757 8.70795 6.49257 8.71978ZM11.0459 9.20847C11.5791 9.62053 12.2578 10.7264 12.5262 13.0262C10.2264 12.7578 9.12053 12.0791 8.70847 11.5459C8.88144 11.2693 9.00716 10.9797 9.06141 10.6939C9.15101 10.2219 9.03835 9.8443 8.95798 9.45798C9.3443 9.53835 9.72189 9.65101 10.1939 9.56141C10.4797 9.50716 10.7693 9.38144 11.0459 9.20847Z" fill="currentColor"/>
</svg>
