<svg width="12" height="13" viewBox="0 0 12 13" fill="none" xmlns="http://www.w3.org/2000/svg">
<g clip-path="url(#clip0_1012_26712)">
<path d="M12 6.5C12 9.81352 9.31352 12.5 6 12.5C2.68648 12.5 0 9.81352 0 6.5C0 3.18648 2.68648 0.5 6 0.5C9.31421 0.5 12 3.18648 12 6.5Z" fill="#2081E2"/>
<path d="M4.00863 6.43571L4.03452 6.39503L5.59536 3.95329C5.61816 3.91753 5.6718 3.92124 5.68906 3.96007C5.94982 4.54447 6.17482 5.27125 6.0694 5.72372C6.0244 5.90988 5.90112 6.16201 5.76242 6.39503C5.74454 6.42893 5.72482 6.46223 5.70386 6.49428C5.69399 6.50907 5.67735 6.51771 5.65947 6.51771H4.05424C4.01109 6.51771 3.98583 6.47085 4.00863 6.43571Z" fill="currentColor"/>
<path d="M9.91729 7.15526V7.54177C9.91729 7.56395 9.90373 7.58369 9.88401 7.59231C9.76319 7.6441 9.34955 7.83397 9.17756 8.07314C8.73865 8.68403 8.40331 9.55754 7.65371 9.55754H4.52649C3.41812 9.55754 2.51996 8.6563 2.51996 7.54423V7.50847C2.51996 7.47889 2.544 7.45485 2.5736 7.45485H4.31689C4.35141 7.45485 4.37669 7.4869 4.37361 7.52081C4.36128 7.63423 4.38224 7.75013 4.43587 7.85554C4.53944 8.06574 4.75396 8.19705 4.98575 8.19705H5.84876V7.52327H4.9956C4.95184 7.52327 4.92595 7.47273 4.95123 7.43697C4.96047 7.42279 4.97095 7.40799 4.98204 7.39135C5.0628 7.2767 5.17807 7.09854 5.29273 6.89573C5.37101 6.75889 5.44684 6.61278 5.50787 6.46607C5.5202 6.43957 5.53007 6.41245 5.53992 6.38593C5.55657 6.33909 5.57383 6.29531 5.58616 6.25155C5.59848 6.21457 5.60835 6.17573 5.61821 6.13935C5.64719 6.01483 5.65952 5.88291 5.65952 5.74606C5.65952 5.69243 5.65705 5.63634 5.65212 5.5827C5.64965 5.52414 5.64225 5.46558 5.63485 5.40702C5.62992 5.35523 5.62068 5.30407 5.61081 5.25045C5.59848 5.17215 5.58123 5.09449 5.56149 5.01619L5.55472 4.98661C5.53992 4.93298 5.5276 4.88181 5.51033 4.82818C5.46164 4.65989 5.40553 4.49591 5.34636 4.34242C5.32479 4.28139 5.30012 4.22283 5.27547 4.16427C5.23909 4.07611 5.20211 3.99598 5.16821 3.92015C5.15095 3.88563 5.13615 3.85419 5.12136 3.82214C5.10472 3.78577 5.08745 3.74941 5.0702 3.71487C5.05787 3.68837 5.04368 3.66371 5.03383 3.63906L4.92841 3.44426C4.91361 3.41775 4.93828 3.38631 4.96724 3.39433L5.62684 3.5731H5.62869C5.62992 3.5731 5.63055 3.57371 5.63116 3.57371L5.71808 3.59775L5.81363 3.62487L5.84876 3.63474V3.24269C5.84876 3.05343 6.00041 2.89994 6.18781 2.89994C6.28151 2.89994 6.36657 2.93815 6.4276 3.00042C6.48863 3.06269 6.52685 3.14775 6.52685 3.24269V3.82461L6.59712 3.84433C6.60268 3.84618 6.60823 3.84865 6.61316 3.85234C6.63041 3.86529 6.65507 3.88441 6.68651 3.90782C6.71117 3.92755 6.73768 3.95159 6.76973 3.97625C6.83323 4.02742 6.90904 4.09338 6.99227 4.16919C7.01445 4.18831 7.03604 4.20803 7.05576 4.22777C7.16303 4.32762 7.28323 4.44475 7.39789 4.57421C7.42995 4.61057 7.46139 4.64755 7.49344 4.68639C7.52549 4.72585 7.5594 4.76469 7.58899 4.80353C7.62783 4.8553 7.66973 4.90893 7.70611 4.96503C7.72337 4.99154 7.74309 5.01866 7.75975 5.04517C7.80659 5.11606 7.84789 5.18942 7.88735 5.26277C7.90399 5.29667 7.92125 5.33366 7.93604 5.37003C7.97981 5.46805 8.01433 5.56791 8.03652 5.66778C8.04331 5.68935 8.04824 5.71278 8.05071 5.73374V5.73866C8.05809 5.76826 8.06056 5.7997 8.06303 5.83175C8.07289 5.93407 8.06796 6.03641 8.04577 6.13935C8.03652 6.18313 8.0242 6.22442 8.0094 6.26819C7.9946 6.31011 7.97981 6.35387 7.96071 6.39518C7.92372 6.48086 7.87995 6.56655 7.82816 6.64669C7.81152 6.67627 7.7918 6.70771 7.77207 6.7373C7.75049 6.76874 7.72831 6.79834 7.70857 6.82731C7.68145 6.8643 7.65248 6.90313 7.62289 6.93765C7.59639 6.97402 7.56925 7.01039 7.53966 7.04245C7.49837 7.09114 7.45892 7.13738 7.41761 7.18177C7.39296 7.21074 7.36645 7.24033 7.33932 7.26683C7.31281 7.29642 7.28569 7.32293 7.26104 7.34758C7.21973 7.38889 7.18521 7.42094 7.15624 7.44745L7.08843 7.50971C7.07857 7.51834 7.06563 7.52327 7.05207 7.52327H6.52685V8.19705H7.18768C7.33563 8.19705 7.47617 8.14465 7.5896 8.04849C7.62844 8.01458 7.79796 7.86786 7.99831 7.64657C8.00508 7.63917 8.01372 7.63362 8.02357 7.63115L9.84887 7.10347C9.88277 7.09361 9.91729 7.1195 9.91729 7.15526Z" fill="currentColor"/>
</g>
<defs>
<clipPath id="clip0_1012_26712">
<rect width="12" height="12" fill="currentColor" transform="translate(0 0.5)"/>
</clipPath>
</defs>
</svg>
