<svg width="16" height="17" viewBox="0 0 16 17" fill="none" xmlns="http://www.w3.org/2000/svg">
<path d="M8 2.5C4.6932 2.5 2 5.1932 2 8.5C2 11.8068 4.6932 14.5 8 14.5C11.3068 14.5 14 11.8068 14 8.5C14 5.1932 11.3068 2.5 8 2.5ZM8 3.7C10.6584 3.7 12.8 5.8416 12.8 8.5C12.8 11.1584 10.6584 13.3 8 13.3C5.3416 13.3 3.2 11.1584 3.2 8.5C3.2 5.8416 5.3416 3.7 8 3.7ZM7.82773 4.9V5.54688C7.62433 5.57268 6.48594 5.78655 6.48594 7.16055C6.48594 9.16515 8.56133 8.57237 8.56133 9.90977C8.56133 10.5794 8.12804 10.5953 8.03984 10.5953C7.95944 10.5953 7.43164 10.6381 7.43164 9.61328H6.29727C6.29727 11.3485 7.55616 11.4859 7.74336 11.5117V12.1H8.34453V11.5117C8.54733 11.4865 9.69453 11.2984 9.69453 9.90156C9.69453 7.97796 7.61974 8.34601 7.61914 7.16641C7.61914 6.49021 7.99108 6.46914 8.07148 6.46914C8.21848 6.46914 8.56836 6.59808 8.56836 7.42188H9.70273C9.70273 5.84568 8.62502 5.59988 8.43242 5.56328V4.9H7.82773Z" fill="currentColor"/>
</svg>
