<svg width="16" height="17" viewBox="0 0 16 17" fill="none" xmlns="http://www.w3.org/2000/svg">
<path d="M8 2.5C6.53514 2.5 5.33333 3.7018 5.33333 5.16667C5.33333 6.63153 6.53514 7.83333 8 7.83333C9.46486 7.83333 10.6667 6.63153 10.6667 5.16667C10.6667 3.7018 9.46486 2.5 8 2.5ZM8 3.83333C8.74428 3.83333 9.33333 4.42239 9.33333 5.16667C9.33333 5.91094 8.74428 6.5 8 6.5C7.25572 6.5 6.66667 5.91094 6.66667 5.16667C6.66667 4.42239 7.25572 3.83333 8 3.83333ZM8 9.83333C6.8367 9.83333 5.45811 10.1065 4.29948 10.5638C3.72016 10.7924 3.19646 11.064 2.77734 11.4128C2.35822 11.7615 2 12.2329 2 12.8333V14.5H14V13.8333V12.8333C14 12.2329 13.6418 11.7615 13.2227 11.4128C12.8035 11.064 12.2798 10.7924 11.7005 10.5638C10.5419 10.1065 9.1633 9.83333 8 9.83333ZM8 11.1667C8.9427 11.1667 10.2307 11.416 11.2122 11.8034C11.703 11.9971 12.118 12.228 12.3698 12.4375C12.6216 12.647 12.6667 12.7897 12.6667 12.8333V13.1667H3.33333V12.8333C3.33333 12.7897 3.37839 12.647 3.63021 12.4375C3.88203 12.228 4.29699 11.9971 4.78776 11.8034C5.7693 11.416 7.0573 11.1667 8 11.1667Z" fill="currentColor"/>
</svg>
